<svg xmlns="http://www.w3.org/2000/svg" viewBox="0 0 140 158.84"><defs><style>.cls-1{fill:#3c8c90;}.cls-2{fill:#ea5c9d;}.cls-3{fill:#96c229;}.cls-4{fill:#f29dc3;}.cls-5{fill:#a2bcbd;}.cls-6{fill:#ed6d6f;}.cls-7{fill:#62beaf;}.cls-8{fill:#3eab37;}.cls-9{fill:#025b5a;}</style></defs><title>bimswarmLogo</title><g id="Ebene_2" data-name="Ebene 2"><g id="Ebene_1-2" data-name="Ebene 1"><path class="cls-1" d="M46.65,0C34.18,5.62,8.36,46.65,93.35,46.65,119.88,46.65,82,0,46.65,0"/><path class="cls-2" d="M93.3,56.05h0c-36.21,0-60.08,21.63-46.7,46.65,52.63,0,50.08-27.17,46.7-46.65"/><path class="cls-3" d="M46.65,112.14c-22.73,46.7,46.7,46.7,46.7,46.7s22.26-46.7-46.7-46.7"/><path class="cls-4" d="M93.3,56.05H0A46.71,46.71,0,0,0,46.65,102.7a46.7,46.7,0,0,1,46.7-46.65"/><path class="cls-5" d="M46.65,112.14A46.7,46.7,0,0,0,0,158.84H93.3a46.7,46.7,0,0,1-46.7-46.7"/><path class="cls-6" d="M93.3,56.05h0A46.7,46.7,0,0,1,46.6,102.7H140A46.71,46.71,0,0,0,93.3,56.05"/><path class="cls-7" d="M46.65,0A46.71,46.71,0,0,0,0,46.65H93.3A46.7,46.7,0,0,1,46.6,0"/><path class="cls-8" d="M140,112.14H46.65a46.7,46.7,0,0,1,46.7,46.7A46.7,46.7,0,0,0,140,112.14"/><path class="cls-9" d="M140,0H46.65a46.7,46.7,0,0,1,46.7,46.65A46.71,46.71,0,0,0,140,0"/></g></g></svg>