<svg xmlns="http://www.w3.org/2000/svg" viewBox="0 0 53.11 57.51"><defs><style>.cls-1{fill:#fff;stroke:#a2bcbd;stroke-miterlimit:10;stroke-width:3px;}.cls-2{fill:#3a8c8f;}</style></defs><title>products</title><g id="Ebene_2" data-name="Ebene 2"><g id="UNCLICKED"><g id="Icon"><line class="cls-1" x1="26.56" y1="21.45" x2="26.56" y2="36.06"/><line class="cls-1" x1="33.86" y1="28.76" x2="19.25" y2="28.76"/><polygon class="cls-2" points="5 23.38 1.72 17.58 5 11.77 11.5 11.77 14.77 17.58 11.5 23.38 5 23.38"/><path class="cls-2" d="M10.62,13.27l2.43,4.31-2.43,4.3H5.88l-2.43-4.3,2.43-4.31h4.74m1.75-3H4.12L0,17.58l4.12,7.3h8.25l4.13-7.3-4.13-7.31Z"/><polygon class="cls-2" points="23.31 13.11 20.03 7.31 23.31 1.5 29.8 1.5 33.08 7.31 29.8 13.11 23.31 13.11"/><path class="cls-2" d="M28.93,3l2.43,4.31-2.43,4.3H24.18l-2.43-4.3L24.18,3h4.75m1.75-3H22.43L18.31,7.31l4.12,7.3h8.25l4.12-7.3L30.68,0Z"/><polygon class="cls-2" points="23.31 56.01 20.03 50.21 23.31 44.4 29.8 44.4 33.08 50.21 29.8 56.01 23.31 56.01"/><path class="cls-2" d="M28.93,45.9l2.43,4.31-2.43,4.3H24.18l-2.43-4.3,2.43-4.31h4.75m1.75-3H22.43l-4.12,7.31,4.12,7.3h8.25l4.12-7.3L30.68,42.9Z"/><polygon class="cls-2" points="5 45.74 1.72 39.93 5 34.13 11.5 34.13 14.77 39.93 11.5 45.74 5 45.74"/><path class="cls-2" d="M10.62,35.63l2.43,4.3-2.43,4.31H5.88L3.45,39.93l2.43-4.3h4.74m1.75-3H4.12L0,39.93l4.12,7.31h8.25l4.13-7.31-4.13-7.3Z"/><polygon class="cls-2" points="41.62 23.38 38.34 17.58 41.62 11.77 48.11 11.77 51.39 17.58 48.11 23.38 41.62 23.38"/><path class="cls-2" d="M47.24,13.27l2.43,4.31-2.43,4.3H42.49l-2.43-4.3,2.43-4.31h4.75m1.75-3H40.74l-4.13,7.31,4.13,7.3H49l4.12-7.3L49,10.27Z"/><polygon class="cls-2" points="41.62 45.74 38.34 39.93 41.62 34.13 48.11 34.13 51.39 39.93 48.11 45.74 41.62 45.74"/><path class="cls-2" d="M47.24,35.63l2.43,4.3-2.43,4.31H42.49l-2.43-4.31,2.43-4.3h4.75m1.75-3H40.74l-4.13,7.3,4.13,7.31H49l4.12-7.31L49,32.63Z"/></g></g></g></svg>