<svg xmlns="http://www.w3.org/2000/svg" width="489" height="241" viewBox="0 0 489 241" version="1.1"><path d="M 0 120.500 L 0 241 49.923 241 L 99.847 241 102.812 238.505 L 105.777 236.010 107.411 238.505 C 108.965 240.877, 109.518 241, 118.590 241 C 127.209 241, 128.085 240.830, 127.621 239.250 C 127.338 238.287, 126.829 235.925, 126.491 234 L 125.874 230.500 120.622 230.832 L 115.370 231.164 108.794 209.832 L 102.217 188.500 107.328 188.190 C 111.008 187.967, 112.748 188.303, 113.544 189.390 C 114.151 190.221, 115.955 196.098, 117.552 202.450 C 119.150 208.803, 120.716 214, 121.032 214 C 121.349 214, 123.158 208.745, 125.052 202.323 C 126.947 195.901, 129.092 190.051, 129.820 189.323 C 131.494 187.649, 136.431 187.604, 137.778 189.250 C 138.341 189.938, 140.555 196.078, 142.697 202.895 L 146.593 215.291 149.857 202.925 C 151.652 196.125, 153.598 189.984, 154.183 189.280 C 154.767 188.576, 156.774 188, 158.642 188 C 160.511 188, 163.718 186.941, 165.770 185.646 C 171.813 181.833, 173.513 181.607, 175.327 184.377 C 176.904 186.782, 176.869 186.829, 171.654 189.381 C 168.758 190.798, 165.435 192.979, 164.269 194.228 C 161.855 196.814, 160.219 202, 161.817 202 C 162.386 202, 166.573 200.200, 171.123 198 C 180.827 193.307, 185.576 192.855, 188.826 196.314 C 191.793 199.473, 191.653 204.574, 188.471 209.258 C 185.765 213.240, 177.372 219.901, 171.581 222.663 C 168.225 224.263, 167.940 224.256, 166.022 222.520 C 163.156 219.926, 163.427 219.347, 168.580 217.068 C 174.472 214.462, 180.671 209.538, 182.490 206.019 C 185.259 200.665, 181.920 200.660, 170.877 206 C 166.328 208.200, 161.591 210, 160.350 210 C 158.435 210, 157.793 211.006, 156.093 216.670 C 154.993 220.339, 154.301 223.678, 154.556 224.091 C 154.812 224.504, 157.041 225.614, 159.510 226.557 C 161.980 227.500, 164 228.621, 164 229.047 C 164 229.473, 162.617 230.986, 160.928 232.408 C 158.528 234.427, 157.448 234.775, 155.993 233.996 C 152.693 232.230, 150.349 232.917, 145.879 236.961 L 141.500 240.922 315.500 240.711 L 489.500 240.500 489.754 120.250 L 490.008 0 460.945 0 C 440.452 0, 432.078 0.317, 432.547 1.076 C 432.913 1.668, 431.848 3.850, 430.180 5.925 L 427.149 9.698 436.535 10.851 C 462.739 14.071, 478.775 27.278, 483.486 49.517 C 485.567 59.340, 485.600 114.506, 483.531 124.270 C 479.817 141.794, 467.263 154.578, 448 160.452 C 439.415 163.070, 421.183 163.621, 410.977 161.570 C 388.844 157.121, 373.755 142.956, 370.015 123.114 C 369.457 120.151, 369 103.726, 369 86.614 L 369 55.500 365.250 55.487 C 363.188 55.479, 360.488 55.111, 359.250 54.669 C 357.115 53.906, 357 54.113, 357 58.733 C 357 61.410, 357.544 64.144, 358.209 64.809 C 359.155 65.755, 358.934 66.358, 357.196 67.575 C 355.973 68.432, 354.117 70.790, 353.071 72.816 C 352.025 74.842, 349.403 78.209, 347.245 80.297 L 343.320 84.094 350.478 91.297 C 356.800 97.658, 357.909 99.353, 359.958 105.795 C 362.802 114.731, 362.427 125.227, 358.934 134.493 C 354.240 146.943, 340.750 156.464, 323.555 159.463 C 312.201 161.442, 256.115 161.715, 254.200 159.800 C 253.540 159.140, 253 156.071, 253 152.979 C 253 147.375, 252.975 147.328, 244.359 137.120 L 235.717 126.882 239.109 123.914 C 242.191 121.217, 242.978 120.995, 247.750 121.482 L 253 122.017 253 68.580 C 253 19.970, 253.151 14.992, 254.672 13.471 C 256.185 11.958, 259.397 11.842, 288.422 12.255 C 314.394 12.625, 321.628 13.031, 326.425 14.389 C 334.782 16.754, 341.330 20.576, 346.506 26.110 L 350.964 30.876 356.732 25.147 C 363.799 18.127, 368.858 15.542, 375.578 15.518 C 379.618 15.504, 381.407 16.073, 384.332 18.304 C 387.934 21.051, 388.067 21.073, 390.914 19.392 L 393.820 17.675 391.660 14.754 C 390.019 12.535, 389.500 10.410, 389.500 5.916 L 389.500 0 194.750 0 L 0 0 0 120.500 M 397.667 0.667 C 395.599 2.735, 398.294 12.131, 401.284 13.279 C 402.031 13.565, 405.071 13.170, 408.039 12.400 C 411.007 11.630, 414.150 11, 415.022 11 C 415.894 11, 418.091 9.470, 419.903 7.600 C 422.353 5.072, 423.027 3.661, 422.532 2.100 C 421.615 -0.788, 420.150 -0.538, 416.336 3.159 L 413.077 6.317 411.072 3.909 C 409.969 2.584, 409.052 1.163, 409.033 0.750 C 408.992 -0.177, 398.587 -0.254, 397.667 0.667 M 0.484 121 C 0.484 187.275, 0.604 214.387, 0.750 181.250 C 0.896 148.112, 0.896 93.887, 0.750 60.750 C 0.604 27.612, 0.484 54.725, 0.484 121 M 163 15.504 C 149.545 18.547, 136.996 27.052, 131.801 36.652 C 126.117 47.152, 125.857 49.589, 126.193 89.203 L 126.500 125.500 129.685 132.223 C 133.313 139.882, 140.415 147.987, 146.751 151.700 C 160.225 159.596, 186.132 161.693, 202.391 156.204 L 207.801 154.378 210.401 157.635 C 211.830 159.427, 213 161.093, 213 161.338 C 213 161.583, 209.111 165.085, 204.357 169.121 L 195.715 176.458 191.607 171.802 L 187.500 167.146 184.433 169.896 L 181.366 172.645 191.582 184.907 C 197.201 191.651, 202.088 197.154, 202.443 197.136 C 202.797 197.119, 204.380 196.017, 205.959 194.688 L 208.830 192.272 204.281 187.071 C 201.736 184.162, 200.121 181.507, 200.615 181.047 C 204.419 177.509, 217.323 167, 217.863 167 C 218.235 167, 220.322 169.250, 222.500 172 C 224.678 174.750, 226.723 177, 227.043 177 C 227.364 177, 228.817 175.757, 230.272 174.238 L 232.918 171.476 224.106 160.955 L 215.294 150.434 219.600 146.688 L 223.906 142.942 232.687 153.471 C 237.517 159.262, 241.701 163.984, 241.984 163.964 C 242.268 163.944, 243.810 162.857, 245.411 161.548 L 248.322 159.169 239.997 149.334 C 235.419 143.925, 231.012 138.723, 230.203 137.774 C 228.897 136.240, 228.998 135.461, 231.117 130.774 C 233.495 125.511, 233.500 125.423, 233.500 87 C 233.500 49.412, 233.447 48.370, 231.257 43 C 226.297 30.837, 215.526 21.167, 202.193 16.907 C 193.374 14.089, 172.555 13.344, 163 15.504 M 7 86.500 L 7 157 22.500 157 L 38 157 38 134.500 L 38 112 46.750 112.025 L 55.500 112.050 65.974 134.143 C 71.735 146.293, 76.927 156.418, 77.512 156.643 C 78.098 156.868, 85.786 156.927, 94.597 156.776 L 110.618 156.500 97.849 132 C 90.826 118.525, 85.075 107.275, 85.069 107 C 85.062 106.725, 87.504 105.019, 90.495 103.209 C 100.781 96.985, 106.328 87.720, 108.099 73.809 C 110.032 58.627, 107.732 45.263, 101.502 35.465 C 97.577 29.294, 93.522 25.797, 85.723 21.860 C 75.577 16.738, 69.694 16.037, 36.750 16.017 L 7 16 7 86.500 M 418 18.911 C 416.075 19.359, 413.233 20.237, 411.685 20.862 C 410.137 21.488, 407.527 22, 405.887 22 C 403.035 22, 398.083 23.980, 393.250 27.051 C 391.647 28.070, 391 29.447, 391 31.839 C 391 36.773, 388.251 41.752, 382.227 47.728 L 376.885 53.027 377.192 88.764 L 377.500 124.500 380.374 130.722 C 387.598 146.362, 404.101 154.930, 427 154.930 C 444.928 154.930, 457.959 150.202, 466.851 140.473 C 476.037 130.422, 476.384 128.674, 476.798 90.500 C 477.175 55.629, 476.671 49.550, 472.692 41.047 C 468.305 31.673, 456.074 22.818, 443.675 20.039 C 437.144 18.576, 422.256 17.921, 418 18.911 M 261 62.559 C 261 107.331, 260.854 105.969, 265.256 102.187 C 266.222 101.358, 267.135 100.864, 267.286 101.089 C 267.863 101.956, 279.428 115.575, 280.797 117 C 282.052 118.308, 282.152 116.870, 281.572 105.790 C 280.818 91.362, 281.209 89.983, 288.212 82.386 L 292.255 78 288.163 78 C 285.140 78, 283.800 77.494, 283.035 76.066 C 282.438 74.949, 282 66.917, 282 57.066 C 282 34.559, 281.153 35.546, 299.890 36.220 C 314.755 36.754, 319.703 38.265, 323.847 43.533 C 326.465 46.860, 328.305 55.742, 327.512 61.223 C 326.941 65.174, 327.211 65.881, 331.047 70.500 C 333.331 73.250, 335.596 75.647, 336.080 75.827 C 337.681 76.421, 346.858 67.846, 347.939 64.746 C 348.522 63.072, 348.993 58.506, 348.985 54.601 C 348.960 43.173, 345.926 35.746, 338.675 29.363 C 329.974 21.704, 320.592 20.048, 285.750 20.020 L 261 20 261 62.559 M 367.500 24.662 C 357.053 30.169, 354.157 39.588, 361.111 45.440 C 364.806 48.549, 370.994 49.056, 371.010 46.250 C 371.023 43.797, 375.624 34.182, 378.735 30.103 L 381.337 26.691 379.058 24.846 C 376.290 22.605, 371.545 22.529, 367.500 24.662 M 415.301 36.645 C 412.992 37.463, 409.317 39.919, 407.133 42.102 C 400.367 48.868, 399.999 51.157, 400.006 86.428 C 400.009 104.158, 400.443 119.053, 401.016 121.118 C 403.537 130.192, 410.956 136.487, 421.201 138.242 C 433.899 140.417, 445.091 135.713, 450.500 125.927 L 453.500 120.500 453.500 87.500 C 453.500 58.406, 453.292 53.961, 451.742 49.945 C 449.601 44.399, 443.974 38.861, 438.230 36.646 C 432.913 34.596, 421.087 34.596, 415.301 36.645 M 171.843 39.975 C 164.246 42.270, 159.761 47.349, 157.975 55.682 C 157.257 59.028, 156.976 71.248, 157.182 90.182 C 157.483 117.915, 157.616 119.716, 159.644 123.500 C 163.739 131.141, 169.577 134.176, 180.181 134.176 C 193.247 134.176, 200.149 128.316, 202.139 115.533 C 202.759 111.555, 203.031 97.699, 202.804 81.651 C 202.378 51.420, 202.092 49.922, 195.676 44.289 C 193.684 42.540, 190.355 40.637, 188.277 40.060 C 183.920 38.850, 175.707 38.807, 171.843 39.975 M 38 64.577 L 38 88.155 51.250 87.827 C 66.168 87.459, 68.558 86.689, 73.376 80.698 C 76.227 77.154, 76.460 76.240, 76.823 67.198 C 77.308 55.111, 76.052 50.131, 71.513 46.146 C 66.812 42.018, 62.456 41.012, 49.250 41.006 L 38 41 38 64.577 M 421.687 43.151 C 415.364 44.072, 412.248 46.241, 409.938 51.328 C 408.210 55.134, 408.042 58.245, 408.022 86.782 C 407.998 120.278, 408.256 122.294, 413.121 126.611 C 421.288 133.860, 438.375 131.827, 443.477 123 C 445.396 119.680, 445.500 117.804, 445.500 86.500 C 445.500 55.936, 445.361 53.270, 443.614 50.386 C 439.979 44.381, 431.788 41.678, 421.687 43.151 M 290 57 L 290 70 301.277 70 C 310.020 70, 313.071 69.639, 314.850 68.392 L 317.146 66.784 315.031 64.533 L 312.916 62.281 316.530 59.108 C 319.578 56.432, 320.047 55.489, 319.520 53.093 C 318.091 46.587, 312.184 44, 298.757 44 L 290 44 290 57 M 317.038 75.642 C 314.440 77.015, 310.856 78, 308.459 78 C 303.753 78, 295.501 83.147, 291.224 88.750 L 288.744 92 294.281 92 C 299.590 92, 300.118 91.750, 307.060 85.950 C 311.042 82.623, 314.638 80.260, 315.050 80.700 C 321.661 87.754, 324.826 92.456, 324.002 93.996 C 323.307 95.295, 323.788 96.381, 325.998 98.498 C 334.592 106.732, 333.673 124.453, 324.280 131.617 C 318.782 135.811, 312.732 137, 296.899 137 L 283.896 137 282.937 134.250 C 282.286 132.383, 281.260 131.484, 279.739 131.451 C 278.508 131.424, 273.788 131.055, 269.250 130.632 L 261 129.863 261 137.231 C 261 141.284, 261.489 145.089, 262.087 145.687 C 262.870 146.470, 262.870 146.962, 262.087 147.446 C 261.489 147.816, 261 149.250, 261 150.633 L 261 153.149 292.750 152.789 C 323.168 152.443, 324.788 152.328, 331.364 150.036 C 340.025 147.017, 347.729 140.280, 351.107 132.770 C 354.426 125.392, 354.552 110.468, 351.345 104.500 C 348.543 99.285, 342.520 93.319, 337.500 90.786 C 332.245 88.134, 330 86.084, 330 83.940 C 330 82.300, 323.537 73.628, 322.139 73.392 C 321.788 73.333, 319.492 74.345, 317.038 75.642 M 290.247 101.241 C 290.474 101.923, 292.121 103.334, 293.905 104.377 C 296.690 106.003, 297.692 106.109, 300.978 105.125 C 303.083 104.494, 305.862 103.098, 307.153 102.022 L 309.500 100.067 299.667 100.033 C 292.272 100.008, 289.936 100.308, 290.247 101.241 M 314 105.145 C 307.640 110.484, 300.591 113.311, 294.983 112.772 L 290 112.294 290 120.647 L 290 129 300.250 128.994 C 312.549 128.988, 316.693 127.974, 320.449 124.053 C 323.987 120.360, 324.968 113.252, 322.691 107.802 C 320.383 102.280, 318.206 101.614, 314 105.145 M 261 114.662 L 261 122.724 267.626 123.403 C 271.270 123.776, 274.450 123.884, 274.691 123.642 C 275.036 123.297, 268.513 115.131, 261.837 107.550 C 261.376 107.027, 261 110.228, 261 114.662 M 250.592 131.500 C 251.493 132.875, 252.403 134, 252.615 134 C 252.827 134, 253 132.875, 253 131.500 C 253 129.657, 252.468 129, 250.977 129 C 249.049 129, 249.031 129.117, 250.592 131.500 M 19.304 189.899 C 14.870 192.682, 12.755 196.307, 12.820 201.012 C 12.904 207.100, 15.845 210.384, 24.008 213.503 C 29.752 215.698, 31 216.570, 31 218.387 C 31 222.951, 26.192 224.392, 20.636 221.494 C 16.372 219.270, 14.232 219.651, 12.534 222.934 C 11.085 225.736, 11.131 225.958, 13.569 227.876 C 14.973 228.980, 18.552 230.428, 21.523 231.092 C 26.179 232.135, 27.544 232.064, 31.433 230.579 C 37.943 228.093, 41 224.053, 41 217.939 C 41 211.584, 37.747 207.835, 29.500 204.685 C 24.455 202.757, 23.450 201.969, 23.187 199.731 C 22.765 196.148, 26.582 195.140, 32.205 197.348 C 36.833 199.166, 37.446 198.971, 39.482 195.035 C 40.883 192.326, 40.825 192.114, 38.225 190.385 C 34.048 187.609, 23.390 187.335, 19.304 189.899 M 231.500 203.674 C 228.200 212.321, 224.499 222.030, 223.276 225.249 L 221.053 231.103 226.276 230.801 C 231.347 230.509, 231.558 230.376, 233.474 226.250 L 235.448 222 243.088 222 L 250.728 222 252.447 226.500 L 254.165 231 259.490 231 L 264.815 231 259.307 216.750 C 256.277 208.912, 252.586 199.350, 251.104 195.500 L 248.410 188.500 242.955 188.226 L 237.500 187.952 231.500 203.674 M 323 209.392 L 323 231 328.500 231 L 334 231 334 223.500 C 334 216.767, 334.197 216, 335.923 216 C 337.244 216, 339.200 218.267, 342.179 223.250 L 346.512 230.500 352.750 230.798 L 358.987 231.095 354.814 224.298 C 352.518 220.559, 349.802 216.551, 348.779 215.392 C 346.953 213.323, 346.963 213.254, 349.360 211.683 C 350.704 210.803, 352.589 208.025, 353.550 205.509 C 355.963 199.190, 354.456 194.066, 349.231 190.825 C 346.036 188.843, 343.884 188.459, 334.250 188.147 L 323 187.784 323 209.392 M 420 209.448 L 420 231 424.500 231 L 429 231 429.052 217.250 L 429.103 203.500 434.461 214.053 C 440.461 225.869, 441.882 227.498, 445.414 226.611 C 447.258 226.148, 449.153 223.543, 453.177 215.940 L 458.500 205.881 458.780 218.440 L 459.060 231 464.030 231 L 469 231 469 209.450 L 469 187.900 463.426 188.200 L 457.852 188.500 450.984 201.807 L 444.116 215.114 437.308 201.807 L 430.500 188.500 425.250 188.198 L 420 187.895 420 209.448 M 334 202 L 334 208 337.345 208 C 341.294 208, 344 205.456, 344 201.743 C 344 198.172, 341.514 196, 337.429 196 L 334 196 334 202 M 240.554 205.750 C 239.558 208.912, 238.527 212.063, 238.264 212.750 C 237.919 213.651, 239.240 214, 243 214 C 246.760 214, 248.081 213.651, 247.736 212.750 C 247.473 212.063, 246.442 208.912, 245.446 205.750 C 244.450 202.588, 243.349 200, 243 200 C 242.651 200, 241.550 202.588, 240.554 205.750 M 132.315 207.101 C 131.666 209.521, 130.868 212.193, 130.541 213.040 C 130.116 214.142, 130.970 214.949, 133.549 215.881 C 135.529 216.598, 137.275 217.030, 137.427 216.842 C 137.580 216.654, 136.758 213.396, 135.600 209.601 L 133.494 202.703 132.315 207.101 M 132.387 225.750 C 132.675 226.713, 133.433 229.637, 134.073 232.250 C 134.714 234.863, 135.479 237, 135.774 237 C 136.070 237, 137.801 235.863, 139.622 234.474 C 142.575 232.222, 142.814 231.687, 141.831 229.529 C 141.218 228.183, 139.004 226.419, 136.844 225.554 C 131.970 223.604, 131.750 223.614, 132.387 225.750" stroke="none" fill="#ffffff" fill-rule="evenodd"/><path d="M 20.212 189.990 C 15.780 192.001, 12.996 196.339, 13.004 201.218 C 13.010 204.946, 16.706 209.908, 20.743 211.608 C 32.432 216.532, 33.859 218.141, 29.975 222.025 C 27.633 224.367, 25.371 224.204, 19.103 221.239 C 15.738 219.648, 15.682 219.661, 13.354 222.566 C 11.142 225.327, 11.106 225.580, 12.752 226.857 C 23.219 234.980, 39.169 230.611, 40.700 219.202 C 41.648 212.131, 38.908 209.163, 26.750 204.093 C 23.404 202.698, 22 201.541, 22 200.179 C 22 196.053, 26.524 195.111, 34.665 197.542 C 36.310 198.034, 37.248 197.551, 38.569 195.534 C 40.630 192.389, 39.644 190.976, 34.101 189.131 C 29.228 187.509, 25.118 187.764, 20.212 189.990 M 103.028 188.750 C 103.043 189.162, 105.918 198.725, 109.416 210 L 115.776 230.500 120.196 230.797 L 124.617 231.094 128.997 216.509 C 131.409 208.480, 133.686 202.503, 134.063 203.212 C 134.440 203.920, 135.747 208.100, 136.968 212.500 C 138.189 216.900, 139.983 222.750, 140.955 225.500 C 142.708 230.460, 142.756 230.500, 147.062 230.500 L 151.402 230.500 157.670 210.500 C 161.118 199.500, 163.952 189.879, 163.969 189.120 C 164.009 187.329, 155.127 188.176, 153.954 190.075 C 153.514 190.786, 152.015 195.917, 150.621 201.478 C 146.456 218.103, 146.747 217.929, 143.090 205.971 C 141.329 200.212, 139.435 194.059, 138.882 192.298 C 137.741 188.663, 135.385 187.523, 131.820 188.878 C 129.782 189.653, 128.826 191.606, 126.057 200.654 C 120.598 218.492, 121.247 218.280, 117.322 203.500 C 115.363 196.126, 113.166 189.959, 112.244 189.250 C 110.501 187.910, 102.982 187.502, 103.028 188.750 M 232.434 202.750 C 229.288 210.863, 225.654 220.165, 224.357 223.422 C 223.061 226.680, 222 229.717, 222 230.172 C 222 231.221, 229.086 231.232, 230.732 230.186 C 231.410 229.756, 232.581 227.625, 233.333 225.452 L 234.701 221.500 242.967 221.500 L 251.232 221.500 252.889 226 C 254.513 230.408, 254.646 230.506, 259.403 230.810 C 263.739 231.087, 264.186 230.926, 263.574 229.310 C 263.197 228.315, 259.460 218.613, 255.271 207.750 L 247.654 188 242.904 188 L 238.153 188 232.434 202.750 M 324 209.350 L 324 231 328.500 231 L 333 231 333 223 C 333 215.176, 333.054 215, 335.451 215 C 337.430 215, 338.608 216.261, 341.567 221.553 C 345.955 229.400, 348.403 231.232, 353.942 230.811 L 358.047 230.500 353.428 223 C 350.887 218.875, 348.139 214.973, 347.321 214.329 C 346.039 213.319, 346.128 213.002, 347.971 212.016 C 351.221 210.276, 353.992 204.968, 353.996 200.473 C 354.004 192.339, 349.089 189.344, 334.127 188.363 L 324 187.699 324 209.350 M 420.667 188.667 C 420.300 189.033, 420 198.708, 420 210.167 L 420 231 424.500 231 L 429 231 429.037 216.750 L 429.075 202.500 435.147 214.305 C 441.089 225.858, 441.287 226.104, 444.360 225.805 C 447.251 225.524, 447.976 224.611, 453.500 214.292 L 459.500 203.085 459.777 217.042 L 460.055 231 464.027 231 L 468 231 468 209.500 L 468 188 464.750 188.070 C 462.962 188.109, 460.671 188.467, 459.657 188.866 C 458.631 189.270, 454.772 195.481, 450.948 202.886 L 444.081 216.181 437.340 202.655 C 432.632 193.209, 429.980 188.962, 428.549 188.578 C 425.715 187.817, 421.469 187.864, 420.667 188.667 M 333 202 L 333 208 337.345 208 C 344.135 208, 347.035 203.350, 343.443 198.223 C 342.232 196.493, 340.901 196, 337.443 196 L 333 196 333 202 M 242.623 199 C 242.289 199.825, 240.913 203.762, 239.567 207.750 L 237.119 215 242.501 215 C 245.460 215, 248.073 214.662, 248.307 214.250 C 248.540 213.838, 247.494 209.900, 245.982 205.500 C 244.325 200.681, 242.990 198.096, 242.623 199" stroke="none" fill="#ff28be" fill-rule="evenodd"/><path d="M 407.663 13.053 C 391.980 16.433, 380.044 25.925, 373.498 40.223 C 369.669 48.587, 368.740 60.174, 369.266 93 C 369.757 123.588, 370.178 126.487, 375.732 137.454 C 381.064 147.983, 393.557 156.951, 408 160.616 C 416.747 162.836, 436.230 162.839, 445 160.622 C 464.429 155.712, 478.173 143.295, 482.605 126.650 C 484.566 119.283, 484.570 54.731, 482.610 47.368 C 477.893 29.654, 463.540 16.526, 444.500 12.511 C 434.854 10.477, 418.502 10.717, 407.663 13.053 M 254.622 13.803 C 254.349 14.244, 254.017 46.839, 253.884 86.234 C 253.679 146.632, 253.862 158.129, 255.050 159.561 C 256.340 161.114, 259.174 161.211, 288.480 160.707 C 322.852 160.116, 327.867 159.487, 338.571 154.423 C 345.915 150.949, 354.352 143.023, 357.452 136.687 C 362.326 126.726, 362.506 110.897, 357.850 101.653 C 354.910 95.815, 349.621 89.547, 345.469 86.981 L 341.938 84.799 346.422 80.624 C 354.939 72.693, 358.207 60.523, 355.846 45.540 C 354.169 34.904, 345.692 23.411, 335.840 18.419 C 326.595 13.734, 320.194 13.036, 286.309 13.017 C 269.154 13.008, 254.895 13.361, 254.622 13.803 M 168.870 15.005 C 145.614 18.694, 130.565 31.759, 126.931 51.415 C 126.278 54.949, 126.014 69.549, 126.237 89.809 C 126.644 126.798, 126.896 128.335, 134.327 139.195 C 139.597 146.896, 148.322 153.100, 158.290 156.233 C 164.464 158.174, 167.583 158.489, 180 158.425 C 192.946 158.358, 195.378 158.061, 202.692 155.650 C 210.731 153, 218.518 148.015, 223.849 142.104 C 227.529 138.024, 231.720 128.969, 232.912 122.520 C 234.287 115.082, 234.357 59.200, 233.001 51.886 C 231.426 43.393, 225.728 32.840, 219.875 27.577 C 214.019 22.313, 204.901 17.711, 197.100 16.084 C 189.453 14.488, 175.492 13.954, 168.870 15.005 M 7.750 16.570 C 7.338 16.990, 7 48.758, 7 87.167 L 7 157 22.500 157 L 38 157 38 134.462 L 38 111.925 47.119 112.212 L 56.238 112.500 66.809 134.750 L 77.379 157 93.759 157 L 110.138 157 97.319 131.919 L 84.500 106.838 86.974 105.169 C 103.138 94.266, 108 85.079, 108 65.444 C 108 59.754, 107.494 52.714, 106.876 49.799 C 104.436 38.300, 97.194 28.514, 87.171 23.172 C 76.137 17.291, 72.474 16.766, 39 16.264 C 22.225 16.013, 8.162 16.151, 7.750 16.570 M 408.853 19.988 C 399.291 22.483, 393.677 25.495, 388.471 30.928 C 382.376 37.288, 381.271 38.975, 378.769 45.742 C 376.804 51.056, 376.609 53.916, 376.233 82.842 C 375.687 124.951, 377.133 132.238, 388.061 142.460 C 397.450 151.243, 410.303 155.376, 428 155.303 C 453.648 155.198, 469.329 145.530, 475.527 126 C 476.957 121.496, 477.358 115.430, 477.744 92.500 C 478.282 60.513, 477.384 49.803, 473.472 41.532 C 468.406 30.825, 456.733 22.410, 442.797 19.421 C 434.106 17.557, 417.081 17.841, 408.853 19.988 M 260.206 86.685 L 260.500 153.500 290 153.447 C 320.384 153.392, 326.694 152.775, 335.513 148.994 C 343.937 145.384, 350.476 137.761, 352.991 128.619 C 354.834 121.918, 354.624 110.411, 352.573 105.683 C 350.098 99.978, 343.304 93.182, 336.787 89.892 C 332.093 87.523, 331 86.506, 331 84.506 C 331 82.670, 331.957 81.544, 334.750 80.094 C 340.024 77.356, 344.429 73.015, 347.132 67.890 C 350.318 61.852, 350.288 48.204, 347.071 39.792 C 344.244 32.401, 337.354 26.048, 328.740 22.888 C 322.831 20.721, 320.842 20.580, 291.206 20.235 L 259.911 19.871 260.206 86.685 M 419.332 35.900 C 413.984 37.274, 407.085 41.915, 404.432 45.924 C 402.896 48.244, 401.499 52.369, 400.862 56.460 C 399.425 65.688, 400.286 117.161, 401.967 122.500 C 403.649 127.844, 411.338 135.452, 416.500 136.882 C 421.897 138.375, 432.649 138.216, 437.252 136.573 C 443.235 134.438, 448.021 130.150, 450.598 124.617 C 452.951 119.563, 452.981 119.105, 452.990 87.493 C 452.996 69.618, 452.569 53.983, 452.023 52.080 C 449.259 42.444, 440.307 35.930, 429.100 35.399 C 425.470 35.227, 421.074 35.453, 419.332 35.900 M 284.250 37.662 C 282.502 38.367, 282.456 75.056, 284.200 76.800 C 285.683 78.283, 307.923 78.456, 312.920 77.023 C 322.270 74.342, 327.018 67.656, 326.978 57.230 C 326.942 47.712, 322.535 40.628, 315.101 38.139 C 311.787 37.029, 286.777 36.643, 284.250 37.662 M 174.500 38.993 C 168.346 40.088, 165.652 41.493, 162.230 45.391 C 157.198 51.122, 156.869 53.996, 157.199 89.297 C 157.496 121.055, 157.532 121.552, 159.837 125.259 C 161.122 127.326, 164.272 130.251, 166.837 131.759 C 170.932 134.166, 172.535 134.500, 180 134.500 C 187.044 134.500, 189.188 134.105, 192.517 132.197 C 196.995 129.630, 200.560 125.021, 202.027 119.905 C 203.354 115.280, 203.279 57.543, 201.940 52.723 C 199.184 42.798, 187.098 36.752, 174.500 38.993 M 38 64.487 L 38 89.265 50.750 88.780 C 65.355 88.224, 69.408 86.953, 73.441 81.666 C 77.102 76.866, 78.695 66.412, 77.169 57.200 C 75.067 44.513, 69.660 41.076, 50.501 40.249 L 38 39.709 38 64.487 M 418.968 42.881 C 414.382 44.383, 411.863 46.446, 409.667 50.500 C 407.604 54.309, 407.485 55.942, 407.185 84.651 C 406.983 103.911, 407.255 116.235, 407.938 118.770 C 410.260 127.395, 416.041 131.083, 427.292 131.118 C 436.219 131.147, 440.713 128.924, 443.750 122.980 C 445.947 118.679, 446 117.814, 446 85.936 C 446 53.728, 445.970 53.251, 443.747 49.952 C 440.380 44.956, 435.887 42.774, 428.169 42.387 C 424.501 42.203, 420.361 42.425, 418.968 42.881 M 290 57.500 L 290 71 300.032 71 C 315.781 71, 320 67.994, 320 56.772 C 320 46.795, 315.630 44, 300.032 44 L 290 44 290 57.500 M 283.750 92.555 C 283.337 92.983, 283 102.693, 283 114.131 C 283 134.550, 283.040 134.951, 285.205 136.109 C 287.902 137.553, 311.051 136.664, 316.974 134.890 C 322.059 133.366, 327.887 128.514, 329.624 124.357 C 331.068 120.902, 331.436 112.432, 330.375 107.123 C 329.494 102.719, 322.950 95.647, 318.336 94.113 C 313.995 92.670, 284.901 91.359, 283.750 92.555 M 290 114.637 L 290 130.275 301.753 129.790 C 317.521 129.141, 321.900 126.849, 323.836 118.233 C 326.754 105.247, 318.791 99, 299.318 99 L 290 99 290 114.637" stroke="none" fill="#077c16" fill-rule="evenodd"/></svg>